{"title":"I.want.to.be.a.Soldier.2011.BRRip.XviD.Ac3.Feel-Free","uid":6625885,"size":1268280613,"categoryP":"video","categoryS":"movies","magnet":"?xt=urn:btih:58e18f25aac1f96a05edce568d2969ed4dc74164&amp;dn=I.want.to.be.a.Soldier.2011.BRRip.XviD.Ac3.Feel-Free&amp;tr=udp%3A%2F%2Ftracker.openbittorrent.com%3A80&amp;tr=udp%3A%2F%2Fopen.demonii.com%3A1337&amp;tr=udp%3A%2F%2Ftracker.coppersurfer.tk%3A6969&amp;tr=udp%3A%2F%2Fexodus.desync.com%3A6969","seeders":1,"leechers":2,"uploader":"SnowCrash03","files":-1,"time":1314170471,"description":"Genre: Drama\n Language: English\n IMDb: http://www.imdb.com/title/tt1637687/\n Source: BluRay.720p.DTS.x264-CHD Thanks!\n \nFormat : AVI\n Format/Info : Audio Video Interleave\n File size : 1.18 GiB\n Duration : 1h 28mn\n Overall bit rate : 1 903 Kbps\n \nVideo\n ID : 0\n Format : MPEG-4 Visual\n Format profile : Advanced Simple@L5\n Format settings, BVOP : Yes\n Format settings, QPel : No\n Format settings, GMC : No warppoints\n Format settings, Matrix : Default (H.263)\n Codec ID : XVID\n Codec ID/Hint : XviD\n Duration : 1h 28mn\n Bit rate : 1 446 Kbps\n Width : 640 pixels\n Height : 272 pixels\n Display aspect ratio : 2.35:1\n Frame rate : 23.976 fps\n Color space : YUV\n Chroma subsampling : 4:2:0\n Bit depth : 8 bits\n Scan type : Progressive\n Bits/(Pixel*Frame) : 0.346\n Stream size : 918 MiB (76%)\n Writing library : XviD 1.2.1 (UTC 2008-12-04)\n \nAudio\n ID : 1\n Format : AC-3\n Format/Info : Audio Coding 3\n Mode extension : CM (complete main)\n Codec ID : 2000\n Duration : 1h 28mn\n Bit rate mode : Constant\n Bit rate : 448 Kbps\n Channel(s) : 6 channels\n Channel positions : Front: L C R, Side: L R, LFE\n Sampling rate : 48.0 KHz\n Bit depth : 16 bits\n Stream size : 284 MiB (24%)\n Alignment : Aligned on interleaves\n Interleave, duration : 42 ms (1.00 video frame)\n Interleave, preload duration : 512 ms\n \n\nPlot:\n I Want To Be A Soldier&quot; is the story of Alex, an average eight year old kid who seems to grow a morbid fascination for images portraying violence...","torrent":{"xt":"urn:btih:58e18f25aac1f96a05edce568d2969ed4dc74164","amp;dn":"I.want.to.be.a.Soldier.2011.BRRip.XviD.Ac3.Feel-Free","amp;tr":["udp%3A%2F%2Ftracker.openbittorrent.com%3A80","udp%3A%2F%2Fopen.demonii.com%3A1337","udp%3A%2F%2Ftracker.coppersurfer.tk%3A6969","udp%3A%2F%2Fexodus.desync.com%3A6969"],"infoHash":"58e18f25aac1f96a05edce568d2969ed4dc74164","infoHashBuffer":{"type":"Buffer","data":[88,225,143,37,170,193,249,106,5,237,206,86,141,41,105,237,77,199,65,100]},"announce":[],"urlList":[]}}